<mxfile host="app.diagrams.net" modified="2022-12-03T15:00:36.341Z" agent="5.0 (Macintosh; Intel Mac OS X 10_15_7) AppleWebKit/537.36 (KHTML, like Gecko) Chrome/107.0.0.0 Safari/537.36" etag="-UNTQtldIPHympmN_1-T" version="20.4.0" type="github">
  <diagram id="n7N0HgqN-tLZW7tvWdDp" name="第 1 页">
    <mxGraphModel dx="946" dy="614" grid="1" gridSize="10" guides="1" tooltips="1" connect="1" arrows="1" fold="1" page="1" pageScale="1" pageWidth="583" pageHeight="827" math="0" shadow="0">
      <root>
        <mxCell id="0" />
        <mxCell id="1" parent="0" />
        <mxCell id="XieOslLm8YWYPVGEVG-5-6" style="edgeStyle=orthogonalEdgeStyle;rounded=0;orthogonalLoop=1;jettySize=auto;html=1;entryX=0;entryY=0.5;entryDx=0;entryDy=0;fontSize=18;" edge="1" parent="1" source="XieOslLm8YWYPVGEVG-5-1" target="XieOslLm8YWYPVGEVG-5-2">
          <mxGeometry relative="1" as="geometry" />
        </mxCell>
        <mxCell id="XieOslLm8YWYPVGEVG-5-1" value="&lt;font style=&quot;font-size: 24px;&quot;&gt;鉴权&lt;/font&gt;" style="rounded=1;whiteSpace=wrap;html=1;" vertex="1" parent="1">
          <mxGeometry x="40" y="60" width="120" height="60" as="geometry" />
        </mxCell>
        <mxCell id="XieOslLm8YWYPVGEVG-5-10" style="edgeStyle=orthogonalEdgeStyle;rounded=0;orthogonalLoop=1;jettySize=auto;html=1;fontSize=18;" edge="1" parent="1" source="XieOslLm8YWYPVGEVG-5-2" target="XieOslLm8YWYPVGEVG-5-9">
          <mxGeometry relative="1" as="geometry" />
        </mxCell>
        <mxCell id="XieOslLm8YWYPVGEVG-5-2" value="&lt;font style=&quot;font-size: 18px;&quot;&gt;请求头authorization值为token&lt;/font&gt;" style="rounded=1;whiteSpace=wrap;html=1;fontSize=24;" vertex="1" parent="1">
          <mxGeometry x="205" y="45" width="150" height="90" as="geometry" />
        </mxCell>
        <mxCell id="XieOslLm8YWYPVGEVG-5-14" style="edgeStyle=orthogonalEdgeStyle;rounded=0;orthogonalLoop=1;jettySize=auto;html=1;fontSize=18;" edge="1" parent="1" source="XieOslLm8YWYPVGEVG-5-5" target="XieOslLm8YWYPVGEVG-5-12">
          <mxGeometry relative="1" as="geometry" />
        </mxCell>
        <mxCell id="XieOslLm8YWYPVGEVG-5-5" value="通过jwt.verify解析token获取用户的id" style="rounded=1;whiteSpace=wrap;html=1;fontSize=18;" vertex="1" parent="1">
          <mxGeometry x="420" y="205" width="130" height="80" as="geometry" />
        </mxCell>
        <mxCell id="XieOslLm8YWYPVGEVG-5-15" style="edgeStyle=orthogonalEdgeStyle;rounded=0;orthogonalLoop=1;jettySize=auto;html=1;entryX=0.385;entryY=0.063;entryDx=0;entryDy=0;entryPerimeter=0;fontSize=18;" edge="1" parent="1" source="XieOslLm8YWYPVGEVG-5-9" target="XieOslLm8YWYPVGEVG-5-5">
          <mxGeometry relative="1" as="geometry" />
        </mxCell>
        <mxCell id="XieOslLm8YWYPVGEVG-5-9" value="使用鉴权中间件在每次请求前进行鉴权" style="rounded=1;whiteSpace=wrap;html=1;fontSize=18;" vertex="1" parent="1">
          <mxGeometry x="390" y="47.5" width="160" height="85" as="geometry" />
        </mxCell>
        <mxCell id="XieOslLm8YWYPVGEVG-5-12" value="将id放入request对象中，便于接口逻辑进行响应处理" style="rounded=1;whiteSpace=wrap;html=1;fontSize=18;" vertex="1" parent="1">
          <mxGeometry x="130" y="200" width="205" height="90" as="geometry" />
        </mxCell>
      </root>
    </mxGraphModel>
  </diagram>
</mxfile>
